<svg viewBox="0 0 800 600" height="600" width="800" xmlns="http://www.w3.org/2000/svg" version="1.1"><rect x="0" y="0" width="800" height="600" fill="#ff0071ff"></rect><g transform-origin="400 300" transform="scale(1, 1)"><linearGradient id="linear-gradient-r1"><stop offset="0%" stop-color="#95ffda" stop-opacity="100%"></stop><stop offset="100%" stop-color="#95ffa1ff" stop-opacity="100%"></stop></linearGradient><filter id="shadow-r1" x="-20%" width="150%" y="-20%" height="150%"><feDropShadow dx="0" dy="0" stdDeviation="10" flood-color="#00000061"></feDropShadow></filter><path d="M0 0 0,502.45324617763976 C 45.85219751512632,479.8147944572381 151.86691263911004,444.357561874638 229.2609875756316,389.2609875756316 C 306.6550625121531,334.16441327662517 326.51930273432913,304.8225721977341 386.97037468260777,226.97037468260774 C 447.42144663088646,149.1181771674814 502.6071527901415,45.394074936521555 531.516347317025,0 L0 0Z" fill="none" stroke-linecap="round" filter="url(#shadow-r1)" stroke-width="1" style="transition: all 0.4s cubic-bezier(0.16, 1, 0.3, 1) 0s; fill: url(&quot;#linear-gradient-r1&quot;);"></path></g><g transform-origin="400 300" transform="scale(-1, -1)"><linearGradient id="linear-gradient-r1"><stop offset="0%" stop-color="#95ffda" stop-opacity="100%"></stop><stop offset="100%" stop-color="#95ffa1ff" stop-opacity="100%"></stop></linearGradient><filter id="shadow-r1" x="-20%" width="150%" y="-20%" height="150%"><feDropShadow dx="0" dy="0" stdDeviation="10" flood-color="#00000061"></feDropShadow></filter><path d="M0 0 0,531.516347317025 C 44.399313756699364,501.6123916103193 150.95551281829052,449.2587822816955 221.9965687834968,381.9965687834968 C 293.0376247487031,314.7343552852981 311.17518042093144,271.6045935827308 355.20527982603136,195.2052798260314 C 399.23537923113133,118.80596606933203 424.7587086124035,39.04105596520628 442.1470658089965,0 L0 0Z" fill="none" stroke-linecap="round" filter="url(#shadow-r1)" stroke-width="1" style="transition: all 0.4s cubic-bezier(0.16, 1, 0.3, 1) 0s; fill: url(&quot;#linear-gradient-r1&quot;);"></path></g></svg>