<?xml version="1.0" standalone="no"?><!DOCTYPE svg PUBLIC "-//W3C//DTD SVG 1.1//EN" "http://www.w3.org/Graphics/SVG/1.1/DTD/svg11.dtd"><svg t="1679985517390" class="icon" viewBox="0 0 1024 1024" version="1.1" xmlns="http://www.w3.org/2000/svg" p-id="3158" xmlns:xlink="http://www.w3.org/1999/xlink" width="200" height="200"><path d="M889.6 272H131.2c-41.6 0-73.6 32-73.6 73.6v361.6c0 41.6 32 73.6 73.6 73.6h758.4c41.6 0 73.6-32 73.6-73.6V345.6c0-41.6-32-73.6-73.6-73.6zM320 646.4h-51.2l-99.2-195.2v195.2h-32V412.8h44.8l102.4 201.6h3.2V412.8h32v233.6zM400 512h124.8v32H400v6.4c0 41.6 12.8 60.8 38.4 60.8H528v32h-89.6c-19.2 0-35.2-6.4-48-22.4-12.8-16-19.2-41.6-19.2-70.4V496c0-54.4 35.2-76.8 70.4-83.2H528v32h-83.2c-12.8 3.2-41.6 12.8-41.6 51.2-3.2 6.4-3.2 9.6-3.2 16z m416 134.4h-44.8l-44.8-185.6-51.2 185.6h-48L560 412.8h35.2l57.6 192h3.2l51.2-192h38.4l51.2 201.6 60.8-201.6h32L816 646.4z" p-id="3159" fill="#d81e06"></path></svg>